<?xml version="1.0" encoding="utf-8"?>
<!-- Generator: Adobe Illustrator 24.1.2, SVG Export Plug-In . SVG Version: 6.00 Build 0)  -->
<svg version="1.1" id="Слой_1" xmlns="http://www.w3.org/2000/svg" xmlns:xlink="http://www.w3.org/1999/xlink" x="0px" y="0px"
	 viewBox="0 0 500 500" style="enable-background:new 0 0 500 500;" xml:space="preserve">
<style type="text/css">
	.st0{fill:#E3E8F8;}
	.st1{fill:#2F426B;}
</style>
<rect class="st0" width="500" height="500"/>
<path class="st1" d="M234.33,110.63L209,134.9h43.9h43.69v40.85v41.06l24.27-23.26l24.27-23.26v-41.87V86.36h-42.84h-42.63
	L234.33,110.63z"/>
<path class="st1" d="M79.2,199.22v41.87l25.33,24.27l25.33,24.27v-42.07v-41.87h43.69h43.9l-25.33-24.27l-25.33-24.27H123.1H79.2
	V199.22z"/>
<path class="st1" d="M370.03,252.21l-0.63,41.46l-43.27,0.61l-43.06,0.4l24.06,23.26l24.27,23.26h43.69H419v-42.07v-41.87
	l-24.27-23.26l-24.27-23.06L370.03,252.21z"/>
<path class="st1" d="M177.97,306.21l-24.9,23.87v41.06v40.85h43.9h43.69l24.27-23.26l24.27-23.26h-42.63h-42.84l-0.42-41.46
	l-0.63-41.46L177.97,306.21z"/>
<circle class="st1" cx="99" cy="106" r="20"/>
<circle class="st1" cx="399" cy="106" r="20"/>
<circle class="st1" cx="399" cy="392" r="20"/>
<circle class="st1" cx="99" cy="392" r="20"/>
</svg>
