<?xml version="1.0" encoding="utf-8"?>
<!-- Generator: Adobe Illustrator 24.1.2, SVG Export Plug-In . SVG Version: 6.00 Build 0)  -->
<svg version="1.1" id="Слой_1" xmlns="http://www.w3.org/2000/svg" xmlns:xlink="http://www.w3.org/1999/xlink" x="0px" y="0px"
	 viewBox="0 0 1280 800" style="enable-background:new 0 0 1280 800;" xml:space="preserve">
<style type="text/css">
	.st0{fill:#E3E8F8;}
	.st1{fill:#2F426B;}
	.st2{fill:#111111;}
</style>
<rect class="st0" width="1280" height="800"/>
<g>
	<path class="st1" d="M390.4,336.7l-12.5,12h21.7h21.6v20.2v20.3l12-11.5l12-11.5v-20.7v-20.8H424h-21.1L390.4,336.7z"/>
	<path class="st1" d="M313.8,380.4v20.7l12.5,12l12.5,12v-20.8v-20.7h21.6h21.7l-12.5-12l-12.5-12h-21.6h-21.7V380.4z"/>
	<path class="st1" d="M457.4,406.6l-0.3,20.5l-21.4,0.3l-21.3,0.2l11.9,11.5l12,11.5H460h21.7v-20.8v-20.7l-12-11.5l-12-11.4
		L457.4,406.6z"/>
	<path class="st1" d="M362.6,433.3L350.3,445v20.3v20.2H372h21.6l12-11.5l12-11.5h-21.1h-21.2l-0.2-20.5l-0.3-20.5L362.6,433.3z"/>
	<circle class="st1" cx="323.6" cy="334.4" r="9.9"/>
	<circle class="st1" cx="471.8" cy="334.4" r="9.9"/>
	<circle class="st1" cx="471.8" cy="475.6" r="9.9"/>
	<circle class="st1" cx="323.6" cy="475.6" r="9.9"/>
</g>
<path class="st2" d="M502.5,390.4c0,20.9,0.4,39.2,1,42.2c4.4,23.2,26.5,38.3,49.7,34c17-3.1,28.4-13.1,33.4-29.2
	c1.7-5.5,1.9-9.7,1.9-45v-38.9H581h-7.4l-0.3,39.2c-0.3,37.5-0.4,39.5-2.4,43.9c-5.1,10.9-13.2,16.2-24.8,16.2
	c-8.5,0-13.6-1.9-18.9-7.1c-8.9-8.6-9.7-13.3-9.7-57.4v-34.8H510h-7.5V390.4z"/>
<path class="st2" d="M700.2,355.9c-8.9,8.3,0.4,21.6,11.6,16.5c2.8-1.3,5.7-5.8,5.7-8.9c0-2.9-2.6-7.7-4.9-9
	C709,352.6,703,353.3,700.2,355.9z"/>
<path class="st2" d="M871.4,356.3c-2.7,2.4-3.1,3.5-3.1,7.3c0.1,3.6,0.6,4.9,3.2,7.1c6.8,6.2,17,1.8,17-7.2S878.3,350.2,871.4,356.3
	z"/>
<path class="st2" d="M640.3,389.9c-5.4,1.9-9.5,4.8-12.3,8.6l-2.5,3.4v-5.7v-5.7h-7h-7v37v37h6.9h6.9l0.4-23.3
	c0.3-21,0.5-23.6,2.4-27.7c4.1-8.9,11.2-12.8,21.1-11.7c5.3,0.6,9,3,11.8,7.8c1.8,3.1,2,5.5,2.3,29.1l0.3,25.8h7h6.9v-26.9
	c0-22.1-0.3-27.8-1.6-31.9c-3.6-11.1-12.5-17.2-24.9-17.1C647.2,388.6,642.3,389.2,640.3,389.9z"/>
<path class="st2" d="M763.6,390.2c-2.4,0.9-6.6,3.7-9.2,6.2l-4.9,4.7v-5.3v-5.3H743h-6.5v37v37h6.9h6.9l0.4-23.8L751,417l3.1-5.5
	c6.9-12.1,23.1-13.7,29.1-2.8c1.6,2.9,1.8,6.6,2.1,29.5l0.3,26.3h6.9h6.8l0.4-24.8c0.3-24.2,0.4-24.8,2.8-29.2
	c6.4-11.6,24.1-12.2,29.8-1c2.1,4.2,2.2,5.5,2.2,29.7v25.3h7h7V439c0-28.2-0.7-33.3-5.3-40.3c-4.6-6.8-10.1-9.5-20.4-10
	c-7.4-0.4-8.8-0.2-13.8,2.3c-3,1.4-7,4.4-8.7,6.5l-3.2,3.8l-4-4.5c-2.2-2.5-5.8-5.4-8.1-6.4C780,388.1,769.8,388,763.6,390.2z"/>
<path class="st2" d="M699.5,427.5v37h7.5h7.5v-37v-37H707h-7.5V427.5z"/>
<path class="st2" d="M871.5,427.5v37h7h7v-37v-37h-7h-7V427.5z"/>
<path class="st2" d="M905.1,394.2c1.5,2.1,7.2,9.6,12.6,16.7c5.4,7,9.8,13.3,9.8,14c-0.1,0.6-6.6,9.6-14.6,20.1l-14.4,19l8.2,0.3
	c9.7,0.3,7.8,2,21.5-18c4.9-7,9-12.7,9.3-12.7s4.4,5.7,9.3,12.7c13.8,20,11.7,18.3,21.9,18l8.7-0.3l-14.5-19
	c-8-10.5-14.7-19.3-14.9-19.6c-0.4-0.5,17.8-26.2,23.8-33.7c0.7-0.9-0.9-1.2-7.7-1.2h-8.6l-8.6,13l-8.7,12.9l-3.8-5.5
	c-2.1-3-6.1-8.8-8.9-12.9l-5.1-7.5h-9h-9.1L905.1,394.2z"/>
</svg>
